General
Complete name                    : Once.Upon.A.Time.In.America.1984.BRrip.XviD.AC3 - CODY.avi
Format                           : AVI
Format/Info                      : Audio Video Interleave
Format profile                   : OpenDML
Format settings                  : rec
File size                        : 3.77 GiB
Duration                         : 3h 49mn
Overall bit rate                 : 2 351 Kbps
Writing application              : VirtualDubMod 1.5.10.2 (build 2540/release)
Writing library                  : VirtualDubMod build 2540/release


Video
ID                               : 0
Format                           : MPEG-4 Visual
Format profile                   : Advanced Simple@L5
Format settings, BVOP            : Yes
Format settings, QPel            : No
Format settings, GMC             : No warppoints
Format settings, Matrix          : Default (H.263)
Muxing mode                      : Packed bitstream
Codec ID                         : XVID
Codec ID/Hint                    : XviD
Duration                         : 3h 49mn
Bit rate                         : 1 900 Kbps
Width                            : 1 024 pixels
Height                           : 576 pixels
Display aspect ratio             : 16:9
Frame rate                       : 23.976 fps
Color space                      : YUV
Chroma subsampling               : 4:2:0
Bit depth                        : 8 bits
Scan type                        : Progressive
Compression mode                 : Lossy
Bits/(Pixel*Frame)               : 0.134
Stream size                      : 3.04 GiB (81%)
Writing library                  : XviD 1.2.0.dev47 (UTC 2006-11-01)

Audio
ID                               : 1
Format                           : AC-3
Format/Info                      : Audio Coding 3
Mode extension                   : CM (complete main)
Codec ID                         : 2000
Duration                         : 3h 49mn
Bit rate mode                    : Constant
Bit rate                         : 448 Kbps
Channel(s)                       : 6 channels
Channel positions                : Front: L C R, Side: L R, LFE
Sampling rate                    : 48.0 KHz
Bit depth                        : 16 bits
Compression mode                 : Lossy
Stream size                      : 735 MiB (19%)
Alignment                        : Aligned on interleaves
Interleave, duration             : 64 ms (1.53 video frames)
Interleave, preload duration     : 192 ms




IMDB link:                       http://www.imdb.com/title/tt0087843/




Subtitles included               :  Romanian, English




I hope you'll seed at least 1,5:1. This way this torrent has a chance to survive !!



Thanks. ENJOY !



****Bits/(Pixel*Frame)  : 0.134   !!! 

For this reason this  BRrip is not a 720p 

and the resolution had been lowered at 1024x576  !!!

(otherwise this ratio have been 0.086 at the same file size and video bit rate !!! )
